<?xml version="1.0" encoding="utf-8"?>
<!-- Generator: Adobe Illustrator 21.0.2, SVG Export Plug-In . SVG Version: 6.00 Build 0)  -->
<svg version="1.1" id="Layer_1" xmlns="http://www.w3.org/2000/svg" xmlns:xlink="http://www.w3.org/1999/xlink" x="0px" y="0px"
	 viewBox="0 0 841.9 595.3" style="enable-background:new 0 0 841.9 595.3;" xml:space="preserve">
<style type="text/css">
	.st0{fill:#FFFFFF;}
</style>
<g>
	<g>
		<polygon class="st0" points="45.9,265.2 29.2,294.2 42.1,294.2 52.4,276.4 		"/>
		<polygon class="st0" points="37,249.8 11.3,294.2 25.1,294.2 43.9,261.7 		"/>
		<polygon class="st0" points="61.3,261 25.1,198.4 11.3,198.4 54.4,272.9 		"/>
		<path class="st0" d="M67.6,250.1c1.4-2.3,1.4-5.2,0-7.6l-25.5-44.1H29.2l34.2,59.1L67.6,250.1z"/>
	</g>
	<path class="st0" d="M182.4,247.1c0,10.5-3.1,18.9-9.3,25.1c-7,7.4-16.2,11.1-27.6,11.1c-10.9,0-20.1-3.8-27.7-11.3
		s-11.3-16.9-11.3-27.9c0-11.1,3.8-20.4,11.3-27.9c7.6-7.6,16.8-11.3,27.7-11.3c5.5,0,10.7,1,15.6,2.9c4.9,2,8.9,4.7,12.1,8.3
		l-6.9,6.9c-2.3-2.8-5.3-5-9-6.6c-3.7-1.6-7.6-2.4-11.8-2.4c-8.2,0-15.1,2.8-20.8,8.5c-5.6,5.7-8.4,12.9-8.4,21.5
		c0,8.6,2.8,15.8,8.4,21.5c5.7,5.7,12.6,8.5,20.8,8.5c7.5,0,13.7-2.1,18.7-6.3c5-4.2,7.8-10,8.6-17.3h-27.3v-9h36.4
		C182.3,243.4,182.4,245.3,182.4,247.1z"/>
	<path class="st0" d="M194.2,281.6v-75.1h23c11.5,0,20.7,3.5,27.7,10.4c7,6.9,10.4,16,10.4,27.2c0,11.3-3.5,20.3-10.4,27.2
		c-7,6.9-16.2,10.3-27.7,10.3H194.2z M203.9,215.7v56.7h13.3c8.7,0,15.6-2.5,20.7-7.5c5-5,7.6-11.9,7.6-20.8
		c0-8.8-2.5-15.7-7.6-20.8c-5-5-11.9-7.6-20.7-7.6H203.9z"/>
	<path class="st0" d="M339,247.1c0,10.5-3.1,18.9-9.3,25.1c-7,7.4-16.2,11.1-27.6,11.1c-10.9,0-20.1-3.8-27.7-11.3
		c-7.6-7.6-11.3-16.9-11.3-27.9c0-11.1,3.8-20.4,11.3-27.9c7.6-7.6,16.8-11.3,27.7-11.3c5.5,0,10.7,1,15.6,2.9
		c4.9,2,8.9,4.7,12.1,8.3l-6.9,6.9c-2.3-2.8-5.3-5-9-6.6c-3.7-1.6-7.6-2.4-11.8-2.4c-8.2,0-15.1,2.8-20.8,8.5
		c-5.6,5.7-8.4,12.9-8.4,21.5c0,8.6,2.8,15.8,8.4,21.5c5.7,5.7,12.6,8.5,20.8,8.5c7.5,0,13.7-2.1,18.7-6.3c5-4.2,7.8-10,8.6-17.3
		h-27.3v-9h36.4C338.8,243.4,339,245.3,339,247.1z"/>
	<path class="st0" d="M373.9,281.6v-75.1h23c11.5,0,20.7,3.5,27.7,10.4c7,6.9,10.4,16,10.4,27.2c0,11.3-3.5,20.3-10.4,27.2
		c-7,6.9-16.2,10.3-27.7,10.3H373.9z M383.5,215.7v56.7h13.3c8.7,0,15.6-2.5,20.7-7.5c5-5,7.6-11.9,7.6-20.8
		c0-8.8-2.5-15.7-7.6-20.8c-5-5-11.9-7.6-20.7-7.6H383.5z"/>
	<path class="st0" d="M466.2,283.3c-7.6,0-13.8-2.6-18.7-7.8c-4.9-5.2-7.3-11.7-7.3-19.6c0-7.8,2.4-14.4,7.1-19.6
		c4.8-5.2,10.8-7.8,18.3-7.8c7.6,0,13.7,2.5,18.2,7.4c4.5,4.9,6.8,11.8,6.8,20.7l-0.1,1h-40.4c0.1,5,1.8,9.1,5,12.2
		c3.2,3.1,7.1,4.6,11.5,4.6c6.2,0,11-3.1,14.5-9.2l8.6,4.2c-2.3,4.3-5.5,7.7-9.6,10.2C476,282.1,471.4,283.3,466.2,283.3z
		 M450.8,249.7h29.5c-0.3-3.6-1.7-6.5-4.4-8.9c-2.6-2.3-6.1-3.5-10.5-3.5c-3.6,0-6.8,1.1-9.4,3.4C453.4,242.9,451.6,246,450.8,249.7
		z"/>
	<path class="st0" d="M523.3,281.6h-9.7l-20.8-51.4h10.5l15.1,39.9h0.2l15.3-39.9h10.3L523.3,281.6z"/>
	<path class="st0" d="M561.9,249.4v32.2h-9.7v-75.1h43.9v9.2h-34.2v24.7h30.9v9H561.9z"/>
	<path class="st0" d="M625.3,283.3c-7.6,0-13.8-2.6-18.7-7.8c-4.9-5.2-7.3-11.7-7.3-19.6c0-7.8,2.4-14.4,7.1-19.6
		c4.8-5.2,10.8-7.8,18.3-7.8c7.6,0,13.7,2.5,18.2,7.4c4.5,4.9,6.8,11.8,6.8,20.7l-0.1,1h-40.4c0.1,5,1.8,9.1,5,12.2
		c3.2,3.1,7.1,4.6,11.5,4.6c6.2,0,11-3.1,14.5-9.2l8.6,4.2c-2.3,4.3-5.5,7.7-9.6,10.2C635.1,282.1,630.5,283.3,625.3,283.3z
		 M609.9,249.7h29.5c-0.3-3.6-1.7-6.5-4.4-8.9c-2.6-2.3-6.1-3.5-10.5-3.5c-3.6,0-6.8,1.1-9.4,3.4C612.4,242.9,610.7,246,609.9,249.7
		z"/>
	<path class="st0" d="M698.3,267.4c0,4.5-2,8.3-5.9,11.3c-3.9,3.1-8.9,4.6-14.8,4.6c-5.2,0-9.7-1.3-13.6-4
		c-3.9-2.7-6.7-6.2-8.4-10.7l8.6-3.7c1.3,3.1,3.1,5.5,5.5,7.2c2.4,1.7,5.1,2.6,7.9,2.6c3.1,0,5.6-0.7,7.7-2c2.1-1.3,3.1-2.9,3.1-4.7
		c0-3.3-2.5-5.7-7.6-7.2l-8.8-2.2c-10-2.5-15-7.3-15-14.5c0-4.7,1.9-8.4,5.7-11.3c3.8-2.8,8.7-4.2,14.6-4.2c4.5,0,8.7,1.1,12.3,3.3
		c3.7,2.2,6.2,5.1,7.7,8.7l-8.6,3.6c-1-2.2-2.6-3.9-4.8-5.1c-2.2-1.2-4.7-1.8-7.4-1.8c-2.5,0-4.8,0.6-6.8,1.9c-2,1.3-3,2.8-3,4.6
		c0,2.9,2.8,5,8.3,6.3l7.8,2C693.2,254.5,698.3,259.6,698.3,267.4z"/>
	<path class="st0" d="M726.6,282.5c-4.2,0-7.7-1.3-10.4-3.9c-2.8-2.6-4.2-6.2-4.2-10.8V239h-9v-8.8h9v-15.7h9.7v15.7h12.6v8.8h-12.6
		v25.6c0,3.4,0.7,5.8,2,7c1.3,1.2,2.8,1.8,4.5,1.8c0.8,0,1.5-0.1,2.3-0.3c0.7-0.2,1.4-0.4,2-0.7l3,8.6
		C732.9,282,729.9,282.5,726.6,282.5z"/>
	<g>
		<path class="st0" d="M135.7,329.3v65.9h-9.7v-65.9h-21v-9.2h51.6v9.2H135.7z"/>
		<path class="st0" d="M165.1,320.1h9.7v23.7l-0.4,7.1h0.4c1.5-2.5,3.7-4.6,6.8-6.3c3-1.7,6.2-2.5,9.5-2.5c6.3,0,11.1,1.8,14.5,5.4
			c3.4,3.6,5.1,8.7,5.1,15.4v32.3H201v-30.4c0-9.2-4.1-13.9-12.3-13.9c-3.9,0-7.2,1.6-9.9,4.9c-2.7,3.3-4,7.1-4,11.4v28h-9.7V320.1z
			"/>
		<path class="st0" d="M245.1,396.9c-7.6,0-13.8-2.6-18.7-7.8c-4.9-5.2-7.3-11.7-7.3-19.6c0-7.8,2.4-14.4,7.1-19.6
			c4.8-5.2,10.8-7.8,18.3-7.8c7.6,0,13.7,2.5,18.2,7.4c4.5,4.9,6.8,11.8,6.8,20.7l-0.1,1h-40.4c0.1,5,1.8,9.1,5,12.2
			c3.2,3.1,7.1,4.6,11.5,4.6c6.2,0,11-3.1,14.5-9.2l8.6,4.2c-2.3,4.3-5.5,7.7-9.6,10.2C254.9,395.7,250.3,396.9,245.1,396.9z
			 M229.7,363.3h29.5c-0.3-3.6-1.7-6.5-4.4-8.9c-2.6-2.3-6.1-3.5-10.5-3.5c-3.6,0-6.8,1.1-9.4,3.4
			C232.2,356.5,230.5,359.5,229.7,363.3z"/>
		<path class="st0" d="M303,395.2v-75.1h27.2c5.9,0,11.1,2,15.3,5.9c4.3,3.8,6.4,8.7,6.4,14.6c0,7.4-3.4,12.6-10.2,15.6v0.4
			c3.8,1.3,6.9,3.4,9.2,6.6c2.3,3.1,3.5,6.7,3.5,10.7c0,6.2-2.2,11.3-6.7,15.3c-4.3,4.1-9.7,6.1-16.1,6.1H303z M312.7,329.3v23h17.5
			c3.4,0,6.3-1.2,8.6-3.5c2.3-2.4,3.5-5.1,3.5-8.1c0-2.9-1.1-5.6-3.4-8c-2.2-2.3-5-3.5-8.3-3.5H312.7z M312.7,361.3V386h19.4
			c3.5,0,6.5-1.2,8.9-3.7c2.4-2.4,3.6-5.4,3.6-8.7c0-3.3-1.2-6.2-3.7-8.6c-2.5-2.4-5.5-3.7-9.2-3.7H312.7z"/>
		<path class="st0" d="M383.2,342.1c7.1,0,12.8,1.9,16.9,5.7c4.1,3.8,6.2,9,6.2,15.7v31.7h-9.2v-7.1h-0.4c-4,5.9-9.3,8.8-16,8.8
			c-5.7,0-10.4-1.7-14.2-5c-3.8-3.4-5.7-7.6-5.7-12.6c0-5.3,2-9.6,6-12.7c4-3.1,9.4-4.7,16.1-4.7c5.7,0,10.5,1,14.2,3.1v-2.2
			c0-3.4-1.3-6.2-4-8.6c-2.7-2.3-5.8-3.5-9.3-3.5c-5.4,0-9.7,2.3-12.8,6.8l-8.5-5.4C367.1,345.5,374,342.1,383.2,342.1z
			 M370.7,379.5c0,2.5,1.1,4.6,3.2,6.3c2.1,1.7,4.6,2.5,7.5,2.5c4.1,0,7.7-1.5,10.9-4.5c3.2-3,4.8-6.5,4.8-10.6
			c-3-2.4-7.2-3.6-12.6-3.6c-3.9,0-7.2,0.9-9.8,2.8C372,374.3,370.7,376.7,370.7,379.5z"/>
		<path class="st0" d="M426.9,320.1v75.1h-9.7v-75.1H426.9z"/>
		<path class="st0" d="M459.5,396c-4.2,0-7.7-1.3-10.4-3.9c-2.8-2.6-4.2-6.2-4.2-10.8v-28.8h-9v-8.8h9V328h9.7v15.7H467v8.8h-12.6
			v25.6c0,3.4,0.7,5.8,2,7c1.3,1.2,2.8,1.8,4.5,1.8c0.8,0,1.5-0.1,2.3-0.3c0.7-0.2,1.4-0.4,2-0.7l3,8.6
			C465.8,395.6,462.9,396,459.5,396z"/>
		<path class="st0" d="M489.3,326c0,1.9-0.7,3.5-2,4.8c-1.3,1.3-2.9,2-4.8,2c-1.9,0-3.5-0.7-4.8-2c-1.3-1.3-2-2.9-2-4.8
			c0-1.9,0.7-3.5,2-4.8c1.3-1.3,2.9-2,4.8-2c1.9,0,3.5,0.7,4.8,2C488.6,322.5,489.3,324.2,489.3,326z M487.3,343.8v51.4h-9.7v-51.4
			H487.3z"/>
		<path class="st0" d="M522.9,396.9c-7.6,0-14-2.6-19-7.8c-5-5.3-7.5-11.9-7.5-19.6c0-7.9,2.5-14.4,7.5-19.6c5-5.2,11.4-7.8,19-7.8
			c5.2,0,9.8,1.3,13.7,3.9s6.9,6.2,8.8,10.9l-8.8,3.7c-2.7-6.4-7.5-9.7-14.4-9.7c-4.4,0-8.2,1.8-11.4,5.4c-3.1,3.6-4.7,8-4.7,13.2
			c0,5.2,1.6,9.7,4.7,13.2c3.2,3.6,7,5.4,11.4,5.4c7.1,0,12-3.2,14.9-9.7l8.6,3.7c-1.9,4.6-4.8,8.2-8.9,10.9
			S528.2,396.9,522.9,396.9z"/>
		<path class="st0" d="M593.5,380.9c0,4.5-2,8.3-5.9,11.3c-3.9,3.1-8.9,4.6-14.8,4.6c-5.2,0-9.7-1.3-13.6-4
			c-3.9-2.7-6.7-6.2-8.4-10.7l8.6-3.7c1.3,3.1,3.1,5.5,5.5,7.2c2.4,1.7,5.1,2.6,7.9,2.6c3.1,0,5.6-0.7,7.7-2
			c2.1-1.3,3.1-2.9,3.1-4.7c0-3.3-2.5-5.7-7.6-7.2l-8.8-2.2c-10-2.5-15-7.3-15-14.5c0-4.7,1.9-8.4,5.7-11.3
			c3.8-2.8,8.7-4.3,14.6-4.3c4.5,0,8.7,1.1,12.3,3.3c3.7,2.2,6.2,5.1,7.7,8.7l-8.6,3.6c-1-2.2-2.6-3.9-4.8-5.1
			c-2.2-1.2-4.7-1.8-7.4-1.8c-2.5,0-4.8,0.6-6.8,1.9c-2,1.3-3,2.8-3,4.6c0,2.9,2.8,5,8.3,6.3l7.8,2
			C588.4,368,593.5,373.2,593.5,380.9z"/>
		<path class="st0" d="M669.1,386v9.2h-45.8v-9.7l18.6-18.8c6.2-6.4,10.5-11.1,12.9-14.3c2.4-3.2,3.6-6.5,3.6-10
			c0-3.1-1.2-5.8-3.7-8.1c-2.5-2.2-5.6-3.4-9.4-3.4c-3.3,0-6.1,1-8.5,2.9c-2.4,2-3.9,4.3-4.6,7.1l-8.8-3.6c1.4-4.4,4.1-8.1,8.1-11.2
			c4-3,8.7-4.6,14.1-4.6c6.5,0,11.9,2,16.3,6c4.3,4,6.5,8.9,6.5,14.7c0,6.9-3.8,14.4-11.4,22.5l-21,21.1H669.1z"/>
		<path class="st0" d="M678.3,359.3c0-10.9,2.7-19.9,8.1-27s12.3-10.6,20.8-10.6s15.4,3.6,20.8,10.7c5.4,7.1,8.1,16,8.1,26.9
			c0,10.8-2.7,19.8-8.1,27c-5.4,7.1-12.3,10.6-20.8,10.6s-15.4-3.5-20.8-10.6C681,379.1,678.3,370.1,678.3,359.3z M726.1,359.3
			c0-8.3-1.7-15-5.2-20.4c-3.4-5.3-8-8-13.7-8c-5.7,0-10.3,2.7-13.7,8c-3.5,5.3-5.2,12.1-5.2,20.4c0,8.3,1.7,15.1,5.2,20.5
			c3.4,5.2,8,7.9,13.7,7.9c5.7,0,10.3-2.7,13.7-8C724.4,374.3,726.1,367.5,726.1,359.3z"/>
		<path class="st0" d="M771.1,323.4v71.8h-9.7v-59.8l-14,6.1l-3.7-8.2l21.1-9.9H771.1z"/>
		<path class="st0" d="M830.6,333.3l-34.8,63.6l-8.6-4.4l33.3-59.8h-36.3l0.2-9.2h46.3V333.3z"/>
	</g>
</g>
</svg>
