<svg xmlns="http://www.w3.org/2000/svg" viewBox="0 0 841.9 595.3"><style type="text/css">  
	.st0{fill:none;}
	.st1{fill:#FFC107;}
	.st2{fill:#0F9D58;}
	.st3{opacity:0.2;fill:#BF360C;enable-background:new    ;}
	.st4{opacity:0.2;fill:#263238;enable-background:new    ;}
	.st5{opacity:0.2;fill:#FFFFFF;enable-background:new    ;}
	.st6{fill:url(#XMLID_2_);}
	.st7{fill:url(#XMLID_3_);}
	.st8{fill:#4285F4;}
	.st9{fill:#DB4437;}
	.st10{opacity:0.2;fill:#1A237E;enable-background:new    ;}
	.st11{opacity:0.2;fill:#3E2723;enable-background:new    ;}
	.st12{fill:url(#XMLID_4_);}
	.st13{opacity:0.5;}
</style><path class="st0" d="M69.8 242l-25-43.3H11.3l27.6 47.8 -27.6 47.8h33.5l25-43.3C71.4 248.2 71.4 244.8 69.8 242z"/><polygon class="st1" points="55.4 275 47.5 261.3 28.4 294.3 44.7 294.3 55.6 275.4 "/><path class="st0" d="M69.8 242l-25-43.3H11.3l27.6 47.8 -27.6 47.8h33.5l25-43.3C71.4 248.2 71.4 244.8 69.8 242z"/><polygon class="st2" points="38.9 246.5 47.5 261.3 28.4 294.3 11.3 294.3 "/><path class="st0" d="M69.8 242l-25-43.3H11.3l27.6 47.8 -27.6 47.8h33.5l25-43.3C71.4 248.2 71.4 244.8 69.8 242z"/><polygon class="st3" points="44.7 293.5 28.9 293.5 28.4 294.3 44.7 294.3 55.6 275.4 55.4 275 "/><path class="st0" d="M69.8 242l-25-43.3H11.3l27.6 47.8 -27.6 47.8h33.5l25-43.3C71.4 248.2 71.4 244.8 69.8 242z"/><polygon class="st4" points="11.7 293.5 11.3 294.3 28.4 294.3 28.9 293.5 "/><path class="st0" d="M69.8 242l-25-43.3H11.3l27.6 47.8 -27.6 47.8h33.5l25-43.3C71.4 248.2 71.4 244.8 69.8 242z"/><polygon class="st5" points="11.3 294.3 11.7 294.3 39.1 246.9 38.9 246.5 "/><path class="st0" d="M69.8 242l-25-43.3H11.3l27.6 47.8 -27.6 47.8h33.5l25-43.3C71.4 248.2 71.4 244.8 69.8 242z"/><radialGradient cx="55.5" cy="321.4" r="33" gradientTransform="matrix(1 0 0 -1 0 596.552)" gradientUnits="userSpaceOnUse"><stop offset="0" style="stop-color:#BF360C;stop-opacity:0.2"/><stop offset="1" style="stop-color:#BF360C;stop-opacity:0.02"/></radialGradient><polygon class="st6" points="55.6 275.4 55.6 275.4 47.5 261.3 45.5 264.8 "/><path class="st0" d="M69.8 242l-25-43.3H11.3l27.6 47.8 -27.6 47.8h33.5l25-43.3C71.4 248.2 71.4 244.8 69.8 242z"/><radialGradient cx="55.4" cy="321.2" r="33.3" gradientTransform="matrix(1 0 0 -1 0 596.552)" gradientUnits="userSpaceOnUse"><stop offset="0" style="stop-color:#263238;stop-opacity:0.2"/><stop offset="1" style="stop-color:#263238;stop-opacity:0.02"/></radialGradient><polygon class="st7" points="45.5 264.8 47.5 261.3 38.9 246.5 34.8 253.6 "/><path class="st0" d="M69.8 242l-25-43.3H11.3l27.6 47.8 -27.6 47.8h33.5l25-43.3C71.4 248.2 71.4 244.8 69.8 242z"/><polygon class="st8" points="28.4 198.7 11.3 198.7 55.6 275.4 64.2 260.6 64.2 260.6 "/><path class="st0" d="M69.8 242l-25-43.3H11.3l27.6 47.8 -27.6 47.8h33.5l25-43.3C71.4 248.2 71.4 244.8 69.8 242z"/><path class="st9" d="M69.8 251c1.6-2.8 1.6-6.2 0-9l-25-43.3H28.4l35.8 61.9L69.8 251z"/><path class="st0" d="M69.8 242l-25-43.3H11.3l27.6 47.8 -27.6 47.8h33.5l25-43.3C71.4 248.2 71.4 244.8 69.8 242z"/><polygon class="st10" points="64.2 260.6 64 260.2 55.6 274.7 11.7 198.7 11.3 198.7 55.6 275.4 64.2 260.6 "/><path class="st0" d="M69.8 242l-25-43.3H11.3l27.6 47.8 -27.6 47.8h33.5l25-43.3C71.4 248.2 71.4 244.8 69.8 242z"/><path class="st5" d="M44.7 199.4l25 43.3c0.7 1.3 1.1 2.7 1.2 4.1 0.1-1.7-0.3-3.4-1.2-4.9l-25-43.3H11.3l0.4 0.7H44.7z"/><path class="st0" d="M69.8 242l-25-43.3H11.3l27.6 47.8 -27.6 47.8h33.5l25-43.3C71.4 248.2 71.4 244.8 69.8 242z"/><path class="st11" d="M64.2 260.6l5.6-9.6c0.9-1.5 1.2-3.2 1.2-4.9 -0.1 1.4-0.4 2.8-1.2 4.1l-5.8 10L64.2 260.6z"/><path class="st0" d="M69.8 242l-25-43.3H11.3l27.6 47.8 -27.6 47.8h33.5l25-43.3C71.4 248.2 71.4 244.8 69.8 242z"/><radialGradient cx="10.5" cy="397.1" r="100.3" gradientTransform="matrix(1 0 0 -1 0 596.552)" gradientUnits="userSpaceOnUse"><stop offset="0" style="stop-color:#FFF;stop-opacity:0.1"/><stop offset="1" style="stop-color:#FFF;stop-opacity:0"/></radialGradient><path class="st12" d="M69.8 242l-25-43.3H11.3l27.6 47.8 -27.6 47.8h33.5l25-43.3C71.4 248.2 71.4 244.8 69.8 242z"/><path class="st13" d="M184.5 247.3c0 10.5-3.1 18.8-9.3 25 -7 7.4-16.1 11.1-27.5 11.1 -10.9 0-20.1-3.8-27.6-11.3 -7.5-7.5-11.3-16.8-11.3-27.8 0-11 3.8-20.3 11.3-27.8 7.5-7.5 16.7-11.3 27.6-11.3 5.5 0 10.7 1 15.6 2.9 4.9 2 8.9 4.7 12 8.3l-6.9 6.9c-2.3-2.8-5.3-5-8.9-6.5 -3.7-1.6-7.6-2.4-11.8-2.4 -8.2 0-15.1 2.8-20.7 8.5 -5.6 5.7-8.4 12.9-8.4 21.4 0 8.6 2.8 15.7 8.4 21.4 5.6 5.7 12.6 8.5 20.7 8.5 7.5 0 13.7-2.1 18.6-6.3 5-4.2 7.8-9.9 8.6-17.3h-27.2v-9h36.3C184.3 243.6 184.5 245.5 184.5 247.3z"/><path class="st13" d="M196.2 281.7v-74.9h22.9c11.4 0 20.6 3.5 27.6 10.4 6.9 6.9 10.4 15.9 10.4 27.1 0 11.2-3.5 20.3-10.4 27.2 -6.9 6.9-16.1 10.3-27.6 10.3H196.2zM205.8 216v56.5h13.3c8.7 0 15.6-2.5 20.6-7.5 5-5 7.5-11.9 7.5-20.8 0-8.8-2.5-15.7-7.5-20.7 -5-5-11.9-7.5-20.6-7.5H205.8z"/><path class="st13" d="M340.6 247.3c0 10.5-3.1 18.8-9.3 25 -7 7.4-16.1 11.1-27.5 11.1 -10.9 0-20.1-3.8-27.6-11.3s-11.3-16.8-11.3-27.8c0-11 3.8-20.3 11.3-27.8 7.5-7.5 16.7-11.3 27.6-11.3 5.5 0 10.7 1 15.6 2.9 4.9 2 8.9 4.7 12 8.3l-6.9 6.9c-2.3-2.8-5.3-5-8.9-6.5 -3.7-1.6-7.6-2.4-11.8-2.4 -8.2 0-15.1 2.8-20.7 8.5 -5.6 5.7-8.4 12.9-8.4 21.4 0 8.6 2.8 15.7 8.4 21.4 5.6 5.7 12.6 8.5 20.7 8.5 7.5 0 13.7-2.1 18.6-6.3 5-4.2 7.8-9.9 8.6-17.3h-27.2v-9H340C340.4 243.6 340.6 245.5 340.6 247.3z"/><path class="st13" d="M375.3 281.7v-74.9h22.9c11.4 0 20.6 3.5 27.6 10.4 6.9 6.9 10.4 15.9 10.4 27.1 0 11.2-3.5 20.3-10.4 27.2 -6.9 6.9-16.1 10.3-27.6 10.3H375.3zM384.9 216v56.5h13.3c8.7 0 15.6-2.5 20.6-7.5 5-5 7.5-11.9 7.5-20.8 0-8.8-2.5-15.7-7.5-20.7 -5-5-11.9-7.5-20.6-7.5H384.9z"/><path class="st13" d="M467.4 283.4c-7.5 0-13.7-2.6-18.6-7.7 -4.9-5.2-7.3-11.7-7.3-19.6 0-7.8 2.4-14.3 7.1-19.5 4.7-5.2 10.8-7.8 18.2-7.8 7.6 0 13.7 2.5 18.2 7.4 4.5 4.9 6.7 11.8 6.7 20.7l-0.1 1h-40.3c0.1 5 1.8 9.1 5 12.1 3.2 3.1 7 4.6 11.5 4.6 6.1 0 11-3.1 14.4-9.2l8.6 4.2c-2.3 4.3-5.5 7.7-9.6 10.1C477.2 282.1 472.5 283.4 467.4 283.4zM452 249.9h29.4c-0.3-3.6-1.7-6.5-4.3-8.8 -2.6-2.3-6.1-3.5-10.5-3.5 -3.6 0-6.8 1.1-9.4 3.3C454.6 243.1 452.8 246.1 452 249.9z"/><path class="st13" d="M524.3 281.7h-9.6L494 230.4h10.5l15.1 39.8h0.2l15.3-39.8h10.3L524.3 281.7z"/><path class="st13" d="M562.8 249.6v32.1h-9.6v-74.9h43.7v9.2h-34.1v24.6h30.8v9H562.8z"/><path class="st13" d="M626 283.4c-7.5 0-13.7-2.6-18.6-7.7 -4.9-5.2-7.3-11.7-7.3-19.6 0-7.8 2.4-14.3 7.1-19.5 4.7-5.2 10.8-7.8 18.2-7.8 7.6 0 13.7 2.5 18.2 7.4 4.5 4.9 6.7 11.8 6.7 20.7l-0.1 1h-40.3c0.1 5 1.8 9.1 5 12.1 3.2 3.1 7 4.6 11.5 4.6 6.1 0 11-3.1 14.4-9.2l8.6 4.2c-2.3 4.3-5.5 7.7-9.6 10.1C635.8 282.1 631.2 283.4 626 283.4zM610.6 249.9H640c-0.3-3.6-1.7-6.5-4.3-8.8 -2.6-2.3-6.1-3.5-10.5-3.5 -3.6 0-6.8 1.1-9.4 3.3C613.2 243.1 611.5 246.1 610.6 249.9z"/><path class="st13" d="M698.8 267.5c0 4.5-2 8.2-5.9 11.3 -3.9 3.1-8.8 4.6-14.8 4.6 -5.2 0-9.7-1.3-13.6-4 -3.9-2.7-6.7-6.2-8.4-10.6l8.6-3.7c1.3 3.1 3.1 5.5 5.5 7.2 2.4 1.7 5 2.6 7.9 2.6 3.1 0 5.6-0.7 7.7-2 2.1-1.3 3.1-2.9 3.1-4.7 0-3.3-2.5-5.7-7.5-7.2l-8.8-2.2c-10-2.5-15-7.3-15-14.4 0-4.7 1.9-8.4 5.7-11.2 3.8-2.8 8.7-4.2 14.6-4.2 4.5 0 8.6 1.1 12.3 3.2 3.7 2.2 6.2 5.1 7.7 8.7l-8.6 3.6c-1-2.2-2.6-3.9-4.8-5.1 -2.2-1.2-4.7-1.8-7.4-1.8 -2.5 0-4.8 0.6-6.7 1.9 -2 1.3-3 2.8-3 4.6 0 2.9 2.8 5 8.3 6.3l7.7 2C693.7 254.6 698.8 259.7 698.8 267.5z"/><path class="st13" d="M727 282.5c-4.2 0-7.7-1.3-10.4-3.9 -2.8-2.6-4.2-6.2-4.2-10.8v-28.7h-9v-8.8h9v-15.7h9.6v15.7h12.6v8.8h-12.6v25.5c0 3.4 0.7 5.7 2 7 1.3 1.2 2.8 1.8 4.5 1.8 0.8 0 1.5-0.1 2.3-0.3 0.7-0.2 1.4-0.4 2-0.7l3 8.6C733.2 282.1 730.3 282.5 727 282.5z"/><g class="st13"><path d="M137.9 329.2v65.7h-9.6v-65.7h-20.9V320h51.5v9.2H137.9z"/><path d="M167.2 320h9.6v23.6l-0.4 7.1h0.4c1.5-2.5 3.7-4.6 6.8-6.3 3-1.7 6.2-2.5 9.5-2.5 6.3 0 11.1 1.8 14.5 5.4 3.4 3.6 5.1 8.7 5.1 15.3v32.2H203v-30.3c0-9.2-4.1-13.8-12.2-13.8 -3.9 0-7.2 1.6-9.9 4.9 -2.7 3.2-4 7-4 11.4v27.9h-9.6V320z"/><path d="M246.9 396.6c-7.5 0-13.7-2.6-18.6-7.7 -4.9-5.2-7.3-11.7-7.3-19.6 0-7.8 2.4-14.3 7.1-19.5 4.7-5.2 10.8-7.8 18.2-7.8 7.6 0 13.7 2.5 18.2 7.4 4.5 4.9 6.7 11.8 6.7 20.7l-0.1 1h-40.3c0.1 5 1.8 9.1 5 12.1 3.2 3.1 7 4.6 11.5 4.6 6.1 0 11-3.1 14.4-9.2l8.6 4.2c-2.3 4.3-5.5 7.7-9.6 10.1C256.7 395.4 252.1 396.6 246.9 396.6zM231.5 363.1h29.4c-0.3-3.6-1.7-6.5-4.3-8.8 -2.6-2.3-6.1-3.5-10.5-3.5 -3.6 0-6.8 1.1-9.4 3.3C234.1 356.4 232.4 359.4 231.5 363.1z"/><path d="M304.7 394.9V320h27.1c5.9 0 11 2 15.3 5.9 4.3 3.8 6.4 8.7 6.4 14.5 0 7.4-3.4 12.6-10.1 15.6v0.4c3.8 1.3 6.9 3.4 9.2 6.5 2.3 3.1 3.5 6.6 3.5 10.6 0 6.1-2.2 11.2-6.7 15.3 -4.3 4-9.7 6.1-16 6.1H304.7zM314.3 329.2v22.9h17.5c3.4 0 6.3-1.2 8.6-3.5 2.3-2.4 3.5-5.1 3.5-8.1 0-2.9-1.1-5.6-3.3-8 -2.2-2.3-5-3.5-8.3-3.5H314.3zM314.3 361.1v24.6h19.4c3.5 0 6.5-1.2 8.9-3.7 2.4-2.4 3.6-5.3 3.6-8.7 0-3.3-1.2-6.1-3.7-8.6 -2.4-2.4-5.5-3.7-9.2-3.7H314.3z"/><path d="M384.6 342c7.1 0 12.7 1.9 16.8 5.7 4.1 3.8 6.2 9 6.2 15.6v31.6h-9.2v-7.1H398c-4 5.9-9.3 8.8-15.9 8.8 -5.6 0-10.4-1.7-14.2-5s-5.7-7.5-5.7-12.6c0-5.3 2-9.5 6-12.7 4-3.1 9.4-4.7 16.1-4.7 5.7 0 10.4 1 14.1 3.1v-2.2c0-3.3-1.3-6.2-4-8.5 -2.7-2.3-5.8-3.5-9.3-3.5 -5.4 0-9.6 2.3-12.8 6.8l-8.5-5.3C368.6 345.3 375.5 342 384.6 342zM372.2 379.2c0 2.5 1.1 4.6 3.2 6.3 2.1 1.7 4.6 2.5 7.5 2.5 4 0 7.7-1.5 10.8-4.5 3.2-3 4.8-6.5 4.8-10.6 -3-2.4-7.2-3.6-12.6-3.6 -3.9 0-7.2 0.9-9.8 2.8C373.5 374.1 372.2 376.4 372.2 379.2z"/><path d="M428.1 320v74.9h-9.6V320H428.1z"/><path d="M460.7 395.8c-4.2 0-7.7-1.3-10.4-3.9 -2.8-2.6-4.2-6.2-4.2-10.8v-28.7h-9v-8.8h9V328h9.6v15.7h12.6v8.8h-12.6V378c0 3.4 0.7 5.7 2 7 1.3 1.2 2.8 1.8 4.5 1.8 0.8 0 1.5-0.1 2.3-0.3 0.7-0.2 1.4-0.4 2-0.7l3 8.6C467 395.3 464 395.8 460.7 395.8z"/><path d="M490.4 326c0 1.9-0.7 3.5-2 4.8 -1.3 1.3-2.9 2-4.8 2 -1.9 0-3.5-0.7-4.8-2 -1.3-1.3-2-2.9-2-4.8 0-1.9 0.7-3.5 2-4.8 1.3-1.3 2.9-2 4.8-2 1.9 0 3.5 0.7 4.8 2C489.7 322.5 490.4 324.1 490.4 326zM488.4 343.7v51.3h-9.6v-51.3H488.4z"/><path d="M523.9 396.6c-7.6 0-13.9-2.6-18.9-7.7 -5-5.3-7.4-11.8-7.4-19.6 0-7.9 2.5-14.4 7.4-19.6 5-5.2 11.3-7.7 18.9-7.7 5.2 0 9.8 1.3 13.7 3.9 3.9 2.6 6.8 6.2 8.8 10.8l-8.8 3.7c-2.7-6.4-7.5-9.6-14.3-9.6 -4.4 0-8.2 1.8-11.4 5.3 -3.1 3.6-4.7 8-4.7 13.2 0 5.2 1.6 9.6 4.7 13.2 3.2 3.6 7 5.3 11.4 5.3 7 0 12-3.2 14.9-9.6l8.6 3.7c-1.9 4.6-4.8 8.2-8.8 10.8C533.8 395.3 529.2 396.6 523.9 396.6z"/><path d="M594.3 380.7c0 4.5-2 8.2-5.9 11.3 -3.9 3.1-8.8 4.6-14.8 4.6 -5.2 0-9.7-1.3-13.6-4 -3.9-2.7-6.7-6.2-8.4-10.6l8.6-3.7c1.3 3.1 3.1 5.5 5.5 7.2 2.4 1.7 5 2.6 7.9 2.6 3.1 0 5.6-0.7 7.7-2 2.1-1.3 3.1-2.9 3.1-4.7 0-3.3-2.5-5.7-7.5-7.2l-8.8-2.2c-10-2.5-15-7.3-15-14.4 0-4.7 1.9-8.4 5.7-11.2 3.8-2.8 8.7-4.2 14.6-4.2 4.5 0 8.6 1.1 12.3 3.2 3.7 2.2 6.2 5.1 7.7 8.7l-8.6 3.6c-1-2.2-2.6-3.9-4.8-5.1 -2.2-1.2-4.7-1.8-7.4-1.8 -2.5 0-4.8 0.6-6.7 1.9 -2 1.3-3 2.8-3 4.6 0 2.9 2.8 5 8.3 6.3l7.7 2C589.2 367.8 594.3 373 594.3 380.7z"/><path d="M669.6 385.7v9.2H624v-9.6l18.5-18.7c6.2-6.3 10.5-11.1 12.9-14.3 2.4-3.2 3.6-6.5 3.6-10 0-3.1-1.2-5.8-3.7-8.1 -2.4-2.2-5.6-3.3-9.4-3.3 -3.3 0-6.1 1-8.5 2.9 -2.4 2-3.9 4.3-4.6 7.1l-8.8-3.6c1.4-4.4 4.1-8.1 8.1-11.1 4-3 8.6-4.6 14-4.6 6.5 0 11.9 2 16.2 6 4.3 4 6.5 8.9 6.5 14.7 0 6.9-3.8 14.4-11.4 22.4l-20.9 21H669.6z"/><path d="M678.8 359.1c0-10.9 2.7-19.8 8.1-26.9 5.4-7 12.3-10.6 20.7-10.6 8.4 0 15.3 3.6 20.7 10.7 5.4 7 8.1 16 8.1 26.8 0 10.7-2.7 19.7-8.1 26.9 -5.4 7-12.3 10.6-20.7 10.6 -8.4 0-15.3-3.5-20.7-10.6C681.5 378.9 678.8 369.9 678.8 359.1zM726.5 359.1c0-8.2-1.7-15-5.2-20.3 -3.4-5.3-8-8-13.7-8 -5.7 0-10.3 2.7-13.7 8 -3.5 5.3-5.2 12.1-5.2 20.3 0 8.2 1.7 15 5.2 20.4 3.4 5.2 8 7.8 13.7 7.8 5.7 0 10.3-2.7 13.7-8C724.8 374.1 726.5 367.3 726.5 359.1z"/><path d="M771.3 323.4v71.6h-9.6v-59.6l-13.9 6.1 -3.7-8.2 21-9.8H771.3z"/><path d="M830.7 333.2l-34.7 63.4 -8.6-4.4 33.2-59.6h-36.2l0.2-9.2h46.1V333.2z"/></g></svg>